<?xml version="1.0" encoding="UTF-8" standalone="no"?>
<svg
   viewBox="0 0 961 601"
   version="1.1"
   id="svg33"
   sodipodi:docname="cloud-topbanner-02.svg"
   inkscape:version="1.3.2 (091e20e, 2023-11-25, custom)"
   xmlns:inkscape="http://www.inkscape.org/namespaces/inkscape"
   xmlns:sodipodi="http://sodipodi.sourceforge.net/DTD/sodipodi-0.dtd"
   xmlns:xlink="http://www.w3.org/1999/xlink"
   xmlns="http://www.w3.org/2000/svg"
   xmlns:svg="http://www.w3.org/2000/svg">
  <sodipodi:namedview
     id="namedview33"
     pagecolor="#ffffff"
     bordercolor="#000000"
     borderopacity="0.25"
     inkscape:showpageshadow="2"
     inkscape:pageopacity="0.0"
     inkscape:pagecheckerboard="0"
     inkscape:deskcolor="#d1d1d1"
     showgrid="false"
     inkscape:zoom="0.58792924"
     inkscape:cx="457.53805"
     inkscape:cy="244.07699"
     inkscape:window-width="1920"
     inkscape:window-height="1001"
     inkscape:window-x="-9"
     inkscape:window-y="-9"
     inkscape:window-maximized="1"
     inkscape:current-layer="layer3" />
  <defs
     id="defs4">
    <style
       id="style1">.cls-1{fill:#d4e8f4;}.cls-2{isolation:isolate;}.cls-3{opacity:0.13;}.cls-4{clip-path:url(#clip-path);}.cls-5,.cls-7{mix-blend-mode:multiply;}.cls-6{fill:#595656;}.cls-7{opacity:0.2;}.cls-8{fill:url(#linear-gradient);}.cls-9{fill:url(#linear-gradient-2);}.cls-10{fill:url(#linear-gradient-3);}.cls-11{fill:url(#linear-gradient-4);}.cls-12{fill:url(#linear-gradient-5);}.cls-13{fill:url(#linear-gradient-6);}.cls-14{fill:url(#linear-gradient-7);}.cls-15{fill:url(#linear-gradient-8);}.cls-16{fill:url(#linear-gradient-9);}.cls-17{fill:url(#linear-gradient-10);}.cls-18{fill:url(#linear-gradient-11);}.cls-19{fill:url(#linear-gradient-12);}.cls-20{fill:url(#linear-gradient-13);}.cls-21{fill:url(#linear-gradient-14);}.cls-22{fill:url(#linear-gradient-15);}.cls-23{fill:url(#linear-gradient-16);}.cls-24{fill:url(#linear-gradient-17);}.cls-25{fill:url(#linear-gradient-18);}.cls-26,.cls-27,.cls-28{fill:none;stroke-miterlimit:10;stroke-width:7px;}.cls-26{stroke:#2586c7;}.cls-27{stroke:#f7981d;}.cls-28{stroke:#e94435;}.cls-29{fill:#252f3e;}.cls-30{fill:#f7981d;}.cls-31{fill:#2386c7;}.cls-32{fill:#ea4335;}.cls-33{fill:#4285f4;}.cls-34{fill:#34a853;}.cls-35{fill:#fbbc05;}</style>
    <clipPath
       id="clip-path">
      <rect
         class="cls-1"
         x="973.01"
         y="-44.96"
         width="1201.68"
         height="701.58"
         id="rect1" />
    </clipPath>
    <linearGradient
       id="linear-gradient"
       x1="1555.04"
       y1="1178.87"
       x2="828.74"
       y2="57.46"
       gradientUnits="userSpaceOnUse">
      <stop
         offset="0"
         stop-color="#54bae6"
         id="stop1" />
      <stop
         offset="0.2"
         stop-color="#6bc2e9"
         id="stop2" />
      <stop
         offset="0.62"
         stop-color="#a5d8ef"
         id="stop3" />
      <stop
         offset="1"
         stop-color="#dfedf6"
         id="stop4" />
    </linearGradient>
    <linearGradient
       id="linear-gradient-2"
       x1="1443.5"
       y1="1170.97"
       x2="756.81"
       y2="110.72"
       xlink:href="#linear-gradient" />
    <linearGradient
       id="linear-gradient-3"
       x1="1567.47"
       y1="1223.84"
       x2="804.71"
       y2="46.15"
       xlink:href="#linear-gradient" />
    <linearGradient
       id="linear-gradient-4"
       x1="1442.64"
       y1="1234.29"
       x2="716.33"
       y2="112.88"
       xlink:href="#linear-gradient" />
    <linearGradient
       id="linear-gradient-5"
       x1="1337.22"
       y1="1235.86"
       x2="650.53"
       y2="175.6"
       xlink:href="#linear-gradient" />
    <linearGradient
       id="linear-gradient-6"
       x1="1449.42"
       y1="1270.56"
       x2="686.66"
       y2="92.86"
       xlink:href="#linear-gradient" />
    <linearGradient
       id="linear-gradient-7"
       x1="1584.39"
       y1="1080.28"
       x2="899.93"
       y2="23.46"
       xlink:href="#linear-gradient" />
    <linearGradient
       id="linear-gradient-8"
       x1="1743.75"
       y1="1151.12"
       x2="980.99"
       y2="-26.58"
       xlink:href="#linear-gradient" />
    <linearGradient
       id="linear-gradient-9"
       x1="1581.91"
       y1="1162.81"
       x2="857.5"
       y2="44.33"
       xlink:href="#linear-gradient" />
    <linearGradient
       id="linear-gradient-10"
       x1="1446.34"
       y1="1165.54"
       x2="761.87"
       y2="108.73"
       xlink:href="#linear-gradient" />
    <linearGradient
       id="linear-gradient-11"
       x1="1589.9"
       y1="1212"
       x2="827.14"
       y2="34.3"
       xlink:href="#linear-gradient" />
    <linearGradient
       id="linear-gradient-12"
       x1="1435.79"
       y1="1235.64"
       x2="711.39"
       y2="117.16"
       xlink:href="#linear-gradient" />
    <linearGradient
       id="linear-gradient-13"
       x1="1316.02"
       y1="1247.27"
       x2="630.45"
       y2="188.75"
       xlink:href="#linear-gradient" />
    <linearGradient
       id="linear-gradient-14"
       x1="1441.9"
       y1="1275.94"
       x2="673.98"
       y2="90.27"
       xlink:href="#linear-gradient" />
    <linearGradient
       id="linear-gradient-15"
       x1="1574.46"
       y1="1170.95"
       x2="846.49"
       y2="46.97"
       xlink:href="#linear-gradient" />
    <linearGradient
       id="linear-gradient-16"
       x1="1461.79"
       y1="1225.97"
       x2="733.83"
       y2="102"
       xlink:href="#linear-gradient" />
    <linearGradient
       id="linear-gradient-17"
       x1="1499.35"
       y1="1207.63"
       x2="771.38"
       y2="83.66"
       xlink:href="#linear-gradient" />
    <linearGradient
       id="linear-gradient-18"
       x1="1386.54"
       y1="1262.39"
       x2="658.84"
       y2="138.82"
       xlink:href="#linear-gradient" />
  </defs>
  <title
     id="title4">cloud-topbanner-02</title>
  <g
     inkscape:groupmode="layer"
     id="layer3"
     inkscape:label="Layer 1" />
  <g
     class="cls-2"
     id="g33">
    <g
       id="Layer_1"
       data-name="Layer 1"
       style="display:inline">
      <path
         class="cls-26"
         d="m 761.86,403.42 h 67.55 c 71,0 122.16,-48.72 122.16,-109.3 0,-47.65 -31.15,-93.79 -78.36,-106.69 -3.07,-37.21 -21.34,-65.88 -46.81,-81.17 -24.58,-14.75 -54.77,-17.31 -82,-7.63 -23.16,-38 -65.56,-68.11 -120.75,-68.11 v 0 c -79.76,0 -137.6,64.68 -141.84,135.42"
         id="path22"
         style="fill:#ffffff" />
      <path
         id="path23"
         style="fill:#ffffff"
         class="cls-27"
         d="m 240.44922,42.650391 c -79.75992,0 -137.59985,64.679989 -141.839845,135.419919 -48.289952,16.32999 -83.179688,61.67013 -83.179687,115.33008 0,67.30993 54.840223,122.15039 122.160152,122.15039 h 89.71094 C 238.22737,376.93439 267.42285,342.42586 307,329.08984 c 4.23,-70.73993 62.07992,-135.41015 141.83984,-135.41015 20.6456,-0.0962 41.05671,4.37723 59.76954,13.09961 -5.95081,-3.02218 -12.19226,-5.43421 -18.62891,-7.19922 -3.07,-37.21996 -21.34057,-65.88994 -46.81055,-81.16992 -24.57997,-14.74999 -54.77003,-17.31062 -82,-7.64063 C 337.99995,72.799569 295.63916,42.650391 240.44922,42.650391 Z M 508.57031,206.78906 776.74023,457.26953 c 0,-47.63995 -31.13965,-93.7897 -78.34961,-106.67969 -3.07999,-37.21996 -21.34033,-65.88993 -46.82031,-81.16992 -24.57997,-14.74998 -54.76002,-17.31085 -82,-7.63086 -14.5121,-23.90843 -35.72191,-43.03203 -61,-55 z"
         sodipodi:nodetypes="scsscccccccscccccc" />
      <path
         class="cls-28"
         d="m 227.3,415.55 a 120.94,120.94 0 0 0 -3.47,28.87 c 0,67.31 54.84,122.15 122.15,122.15 h 308.61 c 71,0 122.15,-48.71 122.15,-109.3 0,-47.64 -31.14,-93.79 -78.35,-106.68 -3.08,-37.22 -21.34,-65.89 -46.82,-81.17 -24.58,-14.75 -54.76,-17.31 -82,-7.63 a 142.88,142.88 0 0 0 -61,-55"
         id="path24"
         style="fill:#ffffff" />
      <path
         class="cls-29"
         d="m 204.75,202.27 a 14.39,14.39 0 0 0 0.52,4.23 26.13,26.13 0 0 0 1.5,3.38 2.12,2.12 0 0 1 0.34,1.09 1.9,1.9 0 0 1 -0.9,1.4 l -3,2 a 2.19,2.19 0 0 1 -1.21,0.43 2.14,2.14 0 0 1 -1.4,-0.65 13.91,13.91 0 0 1 -1.69,-2.21 c -0.47,-0.8 -0.93,-1.68 -1.46,-2.77 a 17.32,17.32 0 0 1 -13.82,6.49 12.82,12.82 0 0 1 -9.35,-3.38 13.51,13.51 0 0 1 0.73,-18.85 17,17 0 0 1 11.52,-3.75 37.54,37.54 0 0 1 5,0.38 c 1.74,0.24 3.52,0.62 5.41,1 v -3.28 c 0,-3.57 -0.75,-6.06 -2.21,-7.48 -1.46,-1.42 -4,-2.17 -7.67,-2.17 a 21.57,21.57 0 0 0 -5.06,0.62 37.25,37.25 0 0 0 -5.07,1.59 14.29,14.29 0 0 1 -1.65,0.62 3.12,3.12 0 0 1 -0.75,0.15 c -0.65,0 -1,-0.47 -1,-1.46 v -2.34 a 3,3 0 0 1 0.34,-1.65 3.45,3.45 0 0 1 1.31,-1 26.84,26.84 0 0 1 5.93,-2.11 28.31,28.31 0 0 1 7.33,-0.9 c 5.61,0 9.69,1.27 12.31,3.74 2.62,2.47 3.91,6.4 3.91,11.56 v 15.25 z m -19.08,7.15 a 15.13,15.13 0 0 0 4.85,-0.85 10.47,10.47 0 0 0 4.47,-3 7.6,7.6 0 0 0 1.59,-3 16.56,16.56 0 0 0 0.46,-4.09 v -2 a 39.85,39.85 0 0 0 -4.34,-0.78 34.13,34.13 0 0 0 -4.41,-0.28 10.81,10.81 0 0 0 -7,1.87 6.57,6.57 0 0 0 -2.3,5.46 6,6 0 0 0 6.68,6.71 z m 37.75,5.07 a 2.65,2.65 0 0 1 -1.87,-0.47 3.71,3.71 0 0 1 -1,-1.87 l -11,-36.29 a 7.94,7.94 0 0 1 -0.43,-1.87 1,1 0 0 1 0.86,-1.17 1.13,1.13 0 0 1 0.26,0 h 4.6 a 2.6,2.6 0 0 1 1.87,0.47 3.87,3.87 0 0 1 0.94,1.87 l 7.89,31.11 7.33,-31.11 a 3.33,3.33 0 0 1 0.9,-1.87 3.22,3.22 0 0 1 2,-0.45 h 3.75 a 2.83,2.83 0 0 1 1.87,0.47 3.13,3.13 0 0 1 0.89,1.87 l 7.49,31.5 8.13,-31.5 a 4,4 0 0 1 0.94,-1.87 3.07,3.07 0 0 1 1.87,-0.47 h 4.24 a 1,1 0 0 1 1.18,0.9 1.31,1.31 0 0 1 0,0.28 4.8,4.8 0 0 1 -0.09,0.75 7.19,7.19 0 0 1 -0.34,1.18 l -11.22,36.3 a 3.63,3.63 0 0 1 -1,1.87 3,3 0 0 1 -1.87,0.47 h -4 a 2.82,2.82 0 0 1 -1.87,-0.47 3.33,3.33 0 0 1 -0.9,-1.87 l -7.3,-30.36 -7.23,30.23 a 3.76,3.76 0 0 1 -0.9,1.87 2.94,2.94 0 0 1 -1.87,0.47 z m 60.39,1.36 a 31.46,31.46 0 0 1 -7.23,-0.84 21.54,21.54 0 0 1 -5.41,-1.87 3.37,3.37 0 0 1 -1.46,-1.31 3.28,3.28 0 0 1 -0.28,-1.31 V 208 c 0,-1 0.37,-1.46 1.08,-1.46 a 3,3 0 0 1 0.85,0.15 c 0.28,0.1 0.71,0.28 1.18,0.47 a 25.65,25.65 0 0 0 5.16,1.65 28.46,28.46 0 0 0 5.61,0.56 12.7,12.7 0 0 0 6.86,-1.55 5.06,5.06 0 0 0 2.45,-4.47 4.55,4.55 0 0 0 -1.27,-3.3 11.85,11.85 0 0 0 -4.75,-2.45 l -6.81,-2.11 a 14.28,14.28 0 0 1 -7.48,-4.79 11.27,11.27 0 0 1 -2.31,-6.8 10.46,10.46 0 0 1 1.28,-5.22 12.12,12.12 0 0 1 3.38,-3.85 14.94,14.94 0 0 1 4.88,-2.45 20.89,20.89 0 0 1 5.93,-0.8 23.52,23.52 0 0 1 3.14,0.18 c 1.09,0.15 2.08,0.34 3.05,0.53 a 19.48,19.48 0 0 1 2.68,0.75 10.15,10.15 0 0 1 2,0.84 4,4 0 0 1 1.4,1.18 2.5,2.5 0 0 1 0.43,1.55 v 2.21 c 0,1 -0.37,1.49 -1.08,1.49 a 4.89,4.89 0 0 1 -1.87,-0.56 21.55,21.55 0 0 0 -9,-1.87 12,12 0 0 0 -6.24,1.31 4.53,4.53 0 0 0 -2.21,4.19 4.41,4.41 0 0 0 1.4,3.33 14.16,14.16 0 0 0 5.28,2.66 l 6.58,2.16 a 14.35,14.35 0 0 1 7.28,4.51 10.71,10.71 0 0 1 2.17,6.59 12.22,12.22 0 0 1 -1.22,5.44 12.67,12.67 0 0 1 -3.42,4 15.15,15.15 0 0 1 -5.22,2.64 22.51,22.51 0 0 1 -6.81,1.14 z"
         id="path26" />
      <path
         class="cls-30"
         d="M 292.68,238.61 C 277.21,250 254.75,256.1 235.44,256.1 a 103.56,103.56 0 0 1 -69.88,-26.65 c -1.45,-1.31 -0.15,-3.11 1.59,-2.08 a 141,141 0 0 0 69.94,18.63 139.68,139.68 0 0 0 53.35,-11 c 2.56,-1.14 4.78,1.72 2.24,3.61 z"
         id="path27" />
      <path
         class="cls-30"
         d="m 299.13,231.28 c -2,-2.54 -13.09,-1.21 -18.08,-0.62 -1.5,0.19 -1.74,-1.12 -0.38,-2.11 8.83,-6.21 23.36,-4.41 25.05,-2.36 1.69,2.05 -0.47,16.63 -8.74,23.59 -1.27,1.09 -2.49,0.52 -1.87,-0.9 1.82,-4.64 6.08,-15.11 4.02,-17.6 z"
         id="path28" />
      <path
         class="cls-31"
         d="m 695.25,245.45 33.3,-5.88 0.31,-0.07 -17.13,-20.38 q -8.61,-10.2 -17.12,-20.47 c 0,-0.1 17.68,-48.81 17.78,-49 0.1,-0.19 12.07,20.72 29.18,50.37 l 29.34,50.87 0.22,0.39 H 662.26 l 33,-5.82 z m -65.33,-6.2 c 0,0 8.07,-14 17.94,-31.14 l 17.93,-31.11 20.9,-17.54 c 11.5,-9.64 20.93,-17.55 21,-17.56 a 3.61,3.61 0 0 1 -0.34,0.84 l -22.7,48.68 -22.3,47.81 h -16.2 c -8.92,0 -16.21,0 -16.21,0 z"
         id="path29" />
      <path
         class="cls-32"
         d="m 510.53,395.6 h 3.69 l 10.51,-10.51 0.52,-4.47 a 47.25,47.25 0 0 0 -76.87,23.06 5.7,5.7 0 0 1 3.69,-0.22 l 21,-3.47 c 0,0 1.07,-1.77 1.63,-1.66 a 26.23,26.23 0 0 1 35.89,-2.73 z"
         id="path30" />
      <path
         class="cls-33"
         d="m 539.71,403.68 a 47.44,47.44 0 0 0 -14.27,-23 l -14.76,14.75 a 26.25,26.25 0 0 1 9.63,20.81 v 2.62 a 13.13,13.13 0 0 1 0,26.26 H 494 l -2.61,2.66 v 15.75 l 2.61,2.62 h 26.27 a 34.16,34.16 0 0 0 19.4,-62.45 z"
         id="path31" />
      <path
         class="cls-34"
         d="M 467.74,466 H 494 v -21 h -26.26 a 13,13 0 0 1 -5.42,-1.18 l -3.69,1.15 -10.58,10.51 -0.93,3.69 a 34,34 0 0 0 20.62,6.83 z"
         id="path32" />
      <path
         class="cls-35"
         d="M 467.74,397.78 A 34.16,34.16 0 0 0 447.12,459 l 15.24,-15.24 a 13.13,13.13 0 1 1 17.37,-17.37 L 495,411.17 a 34.11,34.11 0 0 0 -27.26,-13.39 z"
         id="path33" />
    </g>
  </g>
  <path
     style="fill:#ffffff;stroke:none;stroke-width:0.850442"
     d="m 233.45212,408.51539 c 1.53177,-5.09142 5.31178,-15.53504 8.37649,-21.08832 13.51724,-24.4934 38.50595,-44.99966 63.90546,-53.61846 4.95112,-1.68005 4.99923,-1.78723 6.34728,-14.13905 2.38713,-21.87268 12.4696,-46.96275 26.44799,-65.81539 20.70589,-27.92604 45.33877,-47.15712 79.46396,-54.50461 11.81435,-2.54374 43.14072,-4.53141 55.69916,0.36858 6.99549,2.72947 28.12966,7.7978 34.1198,10.38427 2.41272,1.04177 13.06661,-14.355 -110.24993,96.71083 -69.9825,63.03018 -166.82444,106.19167 -167.50865,106.59219 -1.00046,0.58563 2.91361,-3.27852 3.39844,-4.89004 z"
     id="path34"
     sodipodi:nodetypes="sssssssssss" />
  <path
     style="fill:#ffffff;stroke-width:0.850442"
     d="m 564.97801,248.11266 c -8.57578,-11.53012 -23.35143,-25.68283 -34.94147,-33.46837 -5.02729,-3.37704 -15.26371,-9.08868 -22.7476,-12.69253 l -13.60708,-6.55244 -1.85626,-9.67887 c -1.02093,-5.32337 -2.14501,-10.44426 -2.49794,-11.37974 -0.59179,-1.56862 -0.30339,-9.04305 1.1872,-7.86659 2.0769,1.6392 91.25176,84.71795 92.71317,86.07277 0.87123,0.80769 -0.22744,1.37417 -5.28028,2.72249 l -6.38043,1.70259 z"
     id="path35"
     sodipodi:nodetypes="ssscssssscs" />
</svg>
