<?xml version="1.0" encoding="UTF-8" standalone="no"?>
<svg
   width="272"
   height="272"
   viewBox="0 0 272 272"
   fill="none"
   version="1.1"
   id="svg20"
   sodipodi:docname="zabbix_logo_identity.svg"
   inkscape:version="1.3.2 (091e20e, 2023-11-25, custom)"
   xmlns:inkscape="http://www.inkscape.org/namespaces/inkscape"
   xmlns:sodipodi="http://sodipodi.sourceforge.net/DTD/sodipodi-0.dtd"
   xmlns="http://www.w3.org/2000/svg"
   xmlns:svg="http://www.w3.org/2000/svg">
  <sodipodi:namedview
     id="namedview20"
     pagecolor="#ffffff"
     bordercolor="#000000"
     borderopacity="0.25"
     inkscape:showpageshadow="2"
     inkscape:pageopacity="0.0"
     inkscape:pagecheckerboard="0"
     inkscape:deskcolor="#d1d1d1"
     showguides="true"
     inkscape:zoom="2.3807018"
     inkscape:cx="182.50921"
     inkscape:cy="135.8843"
     inkscape:window-width="1920"
     inkscape:window-height="1001"
     inkscape:window-x="-9"
     inkscape:window-y="-9"
     inkscape:window-maximized="1"
     inkscape:current-layer="svg20" />
  <rect
     x="0"
     width="272"
     height="272"
     fill="#ffffff"
     id="rect1"
     y="0" />
  <g
     clip-path="url(#clip0_71_2)"
     id="g10"
     transform="translate(-298)">
    <mask
       id="mask0_71_2"
       maskUnits="userSpaceOnUse"
       x="346"
       y="113"
       width="176"
       height="46">
      <path
         d="M 522,113.075 H 346 v 45.85 h 176 z"
         fill="#ffffff"
         id="path2" />
    </mask>
    <g
       mask="url(#mask0_71_2)"
       id="g5">
      <mask
         id="mask1_71_2"
         maskUnits="userSpaceOnUse"
         x="346"
         y="113"
         width="176"
         height="46">
        <path
           d="M 522,113 H 346 v 46 h 176 z"
           fill="#ffffff"
           id="path3" />
      </mask>
      <g
         mask="url(#mask1_71_2)"
         id="g4">
        <path
           d="M 522,113.075 H 346 v 45.85 h 176 z"
           fill="#d40000"
           id="path4" />
      </g>
    </g>
    <path
       d="m 353.547,120.053 h 25.46 v 3.338 l -20.533,24.902 h 21.045 v 3.654 H 353.02 v -3.338 l 20.533,-24.902 h -20.006 z"
       fill="#ffffff"
       id="path5" />
    <path
       d="m 394.192,120.053 h 4.926 l 12.368,31.894 h -4.504 l -2.938,-8.135 h -14.673 l -2.938,8.135 h -4.609 z m 2.516,4.27 -5.966,15.835 h 11.946 l -5.965,-15.835 z"
       fill="#ffffff"
       id="path6" />
    <path
       d="m 416.186,120.053 h 11.208 c 3.36,0 5.86,0.721 7.758,2.09 1.778,1.353 2.727,3.338 2.727,5.834 0,1.985 -0.422,3.549 -1.356,4.692 -0.949,1.143 -2.305,1.88 -4.082,2.196 2.199,0.421 3.871,1.353 5.031,2.812 1.145,1.458 1.778,3.233 1.778,5.413 0,2.812 -0.949,5.008 -2.938,6.572 -1.988,1.564 -4.715,2.285 -8.376,2.285 h -11.735 v -31.894 z m 4.399,3.549 v 9.593 h 6.493 c 2.094,0 3.766,-0.421 4.82,-1.142 1.055,-0.827 1.567,-1.985 1.567,-3.654 0,-1.564 -0.527,-2.813 -1.567,-3.655 -1.054,-0.827 -2.621,-1.142 -4.82,-1.142 z m 0,13.127 v 11.67 h 7.02 c 2.41,0 4.083,-0.527 5.243,-1.459 1.144,-0.932 1.672,-2.391 1.672,-4.376 0,-1.985 -0.528,-3.444 -1.672,-4.376 -1.145,-0.932 -2.938,-1.459 -5.243,-1.459 z"
       fill="#ffffff"
       id="path7" />
    <path
       d="m 446.255,120.053 h 11.208 c 3.36,0 5.86,0.721 7.758,2.09 1.778,1.353 2.727,3.338 2.727,5.834 0,1.985 -0.422,3.549 -1.356,4.692 -0.949,1.143 -2.305,1.88 -4.082,2.196 2.199,0.421 3.871,1.353 5.031,2.812 1.16,1.458 1.778,3.233 1.778,5.413 0,2.812 -0.949,5.008 -2.938,6.572 -1.988,1.564 -4.715,2.285 -8.376,2.285 H 446.27 v -31.894 z m 4.399,3.549 v 9.593 h 6.493 c 2.094,0 3.766,-0.421 4.82,-1.142 1.055,-0.827 1.567,-1.985 1.567,-3.654 0,-1.564 -0.527,-2.813 -1.567,-3.655 -1.054,-0.827 -2.621,-1.142 -4.82,-1.142 z m 0,13.127 v 11.67 h 7.02 c 2.305,0 4.083,-0.527 5.243,-1.459 1.144,-0.932 1.672,-2.391 1.672,-4.376 0,-1.985 -0.528,-3.444 -1.672,-4.376 -1.16,-0.932 -2.938,-1.459 -5.243,-1.459 z"
       fill="#ffffff"
       id="path8" />
    <path
       d="m 488.888,120.053 h 4.821 l 7.652,11.473 7.744,-11.473 h 4.609 l -10.048,14.902 11.314,16.992 h -4.821 l -8.903,-13.338 -8.903,13.338 h -4.715 l 11.313,-16.887 z"
       fill="#ffffff"
       id="path9" />
    <path
       d="m 480.617,120.053 h -4.398 v 31.894 h 4.398 z"
       fill="#ffffff"
       id="path10" />
  </g>
  <defs
     id="defs20">
    <clipPath
       id="clip0_71_2">
      <rect
         width="176"
         height="46"
         fill="#ffffff"
         transform="translate(346,113)"
         id="rect19"
         x="0"
         y="0" />
    </clipPath>
  </defs>
</svg>
